<?xml version="1.0"?>
<svg xmlns="http://www.w3.org/2000/svg" height="512px" viewBox="0 0 512 512" width="512px" class=""><g><path d="m226 192h90v170h-90zm0 0" data-original="#000000" class=""/><path d="m196 192h60v170h-60zm0 0" fill="#292c32" data-original="#292C32" class=""/><path d="m256 0-40 135 40 135c45.015625 0 87.234375-22.78125 112.199219-60h67.800781v-210zm0 0" fill="#adf5ff" data-original="#ADF5FF" class="" style="fill:#D21E1E" data-old_color="#adf5ff"/><path d="m76 0v210h67.800781c24.964844 37.21875 67.183594 60 112.199219 60v-270zm0 0" fill="#d6faff" data-original="#D6FAFF" class="" style="fill:#7979A3" data-old_color="#d6faff"/><path d="m482 309.5h-226l-60 67.5 60 67.5h226zm0 0" fill="#adf5ff" data-original="#ADF5FF" class="" style="fill:#D21E1E" data-old_color="#adf5ff"/><path d="m30 309.5h226v135h-226zm0 0" fill="#d6faff" data-original="#D6FAFF" class="" style="fill:#7979A3" data-old_color="#d6faff"/><path d="m256 60-37.5 75 37.5 75c41.421875 0 75-33.578125 75-75s-33.578125-75-75-75zm0 0" data-original="#000000" class=""/><path d="m181 135c0 41.421875 33.578125 75 75 75v-150c-41.421875 0-75 33.578125-75 75zm0 0" fill="#292c32" data-original="#292C32" class=""/><path d="m256 90-22.5 45 22.5 45c24.851562 0 45-20.148438 45-45s-20.148438-45-45-45zm0 0" fill="#3c4047" data-original="#3C4047" class=""/><path d="m211 135c0 24.851562 20.148438 45 45 45v-90c-24.851562 0-45 20.148438-45 45zm0 0" fill="#50545b" data-original="#50545B" class="active-path" style="fill:#000000" data-old_color="#50545b"/><path d="m256 120-7.5 15 7.5 15c8.285156 0 15-6.714844 15-15s-6.714844-15-15-15zm0 0" data-original="#000000" class=""/><path d="m241 135c0 8.285156 6.714844 15 15 15v-30c-8.285156 0-15 6.714844-15 15zm0 0" fill="#292c32" data-original="#292C32" class=""/><path d="m0 467c0 24.8125 20.1875 45 45 45h45c24.8125 0 45-20.1875 45-45v-22.5l-67.5-40-67.5 40zm0 0" fill="#636c72" data-original="#636C72" class="" style="fill:#7979A3" data-old_color="#636c72"/><path d="m0 377v67.5h135v-67.5l-67.5-40zm0 0" fill="#76838a" data-original="#76838A" class="" style="fill:#000000" data-old_color="#76838a"/><path d="m135 309.5-67.5-40-67.5 40v67.5h135zm0 0" fill="#636c72" data-original="#636C72" class="" style="fill:#7979A3" data-old_color="#636c72"/><path d="m135 287c0-24.8125-20.1875-45-45-45h-45c-24.8125 0-45 20.1875-45 45v22.5h135zm0 0" fill="#76838a" data-original="#76838A" class="" style="fill:#000000" data-old_color="#76838a"/><path d="m377 467c0 24.8125 20.1875 45 45 45h45c24.8125 0 45-20.1875 45-45v-22.5l-67.5-40-67.5 40zm0 0" fill="#50545b" data-original="#50545B" class="active-path" style="fill:#000000" data-old_color="#50545b"/><path d="m377 377v67.5h135v-67.5l-67.5-40zm0 0" fill="#636c72" data-original="#636C72" class="" style="fill:#7979A3" data-old_color="#636c72"/><path d="m512 309.5-67.5-40-67.5 40v67.5h135zm0 0" fill="#50545b" data-original="#50545B" class="active-path" style="fill:#000000" data-old_color="#50545b"/><path d="m512 287c0-24.8125-20.1875-45-45-45h-45c-24.8125 0-45 20.1875-45 45v22.5h135zm0 0" fill="#636c72" data-original="#636C72" class="" style="fill:#7979A3" data-old_color="#636c72"/><path d="m361 30h30v30h-30zm0 0" data-original="#000000" class=""/></g> </svg>
